<?xml version="1.0" encoding="iso-8859-1"?>
<!-- Generator: Adobe Illustrator 19.0.0, SVG Export Plug-In . SVG Version: 6.00 Build 0)  -->
<svg version="1.1" id="Layer_1" xmlns="http://www.w3.org/2000/svg" xmlns:xlink="http://www.w3.org/1999/xlink" x="0px" y="0px"
	 viewBox="0 0 511 511" style="enable-background:new 0 0 511 511;" xml:space="preserve">
<path style="fill:#2D3E50;" d="M511,431c0,44.183-35.817,80-80,80H80c-44.183,0-80-35.817-80-80V104L104,0h327
	c44.183,0,80,35.817,80,80V431z"/>
<path style="fill:#496582;" d="M134.162,343.717V176.396h82.818c7.861,0,14.844,1.286,20.945,3.852
	c6.098,2.569,11.154,6.14,15.168,10.714c4.01,4.574,7.061,10.032,9.148,16.371c2.084,6.342,3.129,13.361,3.129,21.065
	s-1.004,14.927-3.01,21.667c-2.008,6.741-4.977,12.561-8.906,17.455c-3.936,4.897-8.949,8.75-15.047,11.556
	c-6.102,2.811-13.242,4.213-21.428,4.213h-55.613v60.429h-27.204V343.717z M161.367,201.434v56.335h46.225
	c10.592,0,18.334-2.366,23.232-7.102c4.895-4.732,7.342-12.158,7.342-22.27c0-9.63-2.609-16.529-7.824-20.705
	c-5.217-4.171-12.801-6.259-22.75-6.259h-46.225V201.434z"/>
<path style="fill:#496582;" d="M327.482,219.489c8.186,0,15.77,1.527,22.752,4.574c6.982,3.051,13.037,7.385,18.176,13.001
	l-16.371,16.13c-3.051-3.208-6.461-5.736-10.23-7.583c-3.773-1.844-8.709-2.769-14.807-2.769c-6.74,0-12.32,0.842-16.732,2.527
	c-4.416,1.686-6.621,4.454-6.621,8.306c0,1.927,0.52,3.611,1.566,5.056c1.041,1.445,2.324,2.648,3.852,3.611
	c1.523,0.964,3.25,1.769,5.176,2.408c1.926,0.643,3.852,1.203,5.777,1.685c5.936,1.769,11.877,3.371,17.816,4.815
	c5.936,1.444,11.713,3.453,17.334,6.019c2.889,1.287,5.615,2.889,8.186,4.815c2.564,1.926,4.852,4.093,6.861,6.5
	c2.004,2.407,3.611,5.056,4.814,7.944c1.203,2.89,1.807,6.102,1.807,9.631c0,7.384-1.408,13.644-4.215,18.778
	c-2.809,5.139-6.582,9.31-11.314,12.519c-4.736,3.213-10.193,5.537-16.371,6.982c-6.18,1.444-12.561,2.166-19.139,2.166
	c-10.756,0-20.428-1.806-29.012-5.417c-8.588-3.61-15.611-10.311-21.064-20.103l19.5-12.278c3.689,5.139,7.824,8.829,12.398,11.075
	c4.574,2.249,11.033,3.37,19.381,3.37c15.729,0,23.594-4.653,23.594-13.964c0-3.852-1.607-6.819-4.814-8.907
	c-3.213-2.084-6.982-3.77-11.316-5.056c-5.777-1.765-12-3.371-18.658-4.815c-6.662-1.444-12.801-3.528-18.418-6.26
	c-6.258-3.047-11.074-7.102-14.443-12.157c-3.371-5.056-5.057-11.436-5.057-19.14c0-5.455,1.203-10.27,3.611-14.445
	c2.408-4.172,5.777-7.662,10.111-10.473c4.334-2.807,9.547-4.936,15.648-6.38C313.357,220.212,320.1,219.489,327.482,219.489z"/>
<path style="fill:#496582;" d="M0,104h69.334C88.4,104,104,88.666,104,69.6V0L0,104z"/>
<polygon style="opacity:0.2;fill:#5D5D5D;enable-background:new    ;" points="0,159.733 0,104 55.467,104 "/>
<path style="fill:#FFFFFF;" d="M134.162,337.717V170.396h82.818c7.861,0,14.844,1.286,20.945,3.852
	c6.098,2.569,11.154,6.14,15.168,10.714c4.01,4.574,7.061,10.032,9.148,16.371c2.084,6.342,3.129,13.361,3.129,21.065
	s-1.004,14.927-3.01,21.667c-2.008,6.741-4.977,12.561-8.906,17.455c-3.936,4.897-8.949,8.75-15.047,11.556
	c-6.102,2.811-13.242,4.213-21.428,4.213h-55.613v60.429h-27.204V337.717z M161.367,195.434v56.335h46.225
	c10.592,0,18.334-2.366,23.232-7.102c4.895-4.732,7.342-12.158,7.342-22.27c0-9.63-2.609-16.529-7.824-20.705
	c-5.217-4.171-12.801-6.259-22.75-6.259h-46.225V195.434z"/>
<path style="fill:#FFFFFF;" d="M327.482,213.489c8.186,0,15.77,1.527,22.752,4.574c6.982,3.051,13.037,7.385,18.176,13.001
	l-16.371,16.13c-3.051-3.208-6.461-5.736-10.23-7.583c-3.773-1.844-8.709-2.769-14.807-2.769c-6.74,0-12.32,0.842-16.732,2.527
	c-4.416,1.686-6.621,4.454-6.621,8.306c0,1.927,0.52,3.611,1.566,5.056c1.041,1.445,2.324,2.648,3.852,3.611
	c1.523,0.964,3.25,1.769,5.176,2.408c1.926,0.643,3.852,1.203,5.777,1.685c5.936,1.769,11.877,3.371,17.816,4.815
	c5.936,1.444,11.713,3.453,17.334,6.019c2.889,1.287,5.615,2.889,8.186,4.815c2.564,1.926,4.852,4.093,6.861,6.5
	c2.004,2.407,3.611,5.056,4.814,7.944c1.203,2.89,1.807,6.102,1.807,9.631c0,7.384-1.408,13.644-4.215,18.778
	c-2.809,5.139-6.582,9.31-11.314,12.519c-4.736,3.213-10.193,5.537-16.371,6.982c-6.18,1.444-12.561,2.166-19.139,2.166
	c-10.756,0-20.428-1.806-29.012-5.417c-8.588-3.61-15.611-10.311-21.064-20.103l19.5-12.278c3.689,5.139,7.824,8.829,12.398,11.075
	c4.574,2.249,11.033,3.37,19.381,3.37c15.729,0,23.594-4.653,23.594-13.964c0-3.852-1.607-6.819-4.814-8.907
	c-3.213-2.084-6.982-3.77-11.316-5.056c-5.777-1.765-12-3.371-18.658-4.815c-6.662-1.444-12.801-3.528-18.418-6.26
	c-6.258-3.047-11.074-7.102-14.443-12.157c-3.371-5.056-5.057-11.436-5.057-19.14c0-5.455,1.203-10.27,3.611-14.445
	c2.408-4.172,5.777-7.662,10.111-10.473c4.334-2.807,9.547-4.936,15.648-6.38C313.357,214.212,320.1,213.489,327.482,213.489z"/>
<g>
</g>
<g>
</g>
<g>
</g>
<g>
</g>
<g>
</g>
<g>
</g>
<g>
</g>
<g>
</g>
<g>
</g>
<g>
</g>
<g>
</g>
<g>
</g>
<g>
</g>
<g>
</g>
<g>
</g>
</svg>
